<svg width="25" height="28" viewBox="0 0 25 28" fill="none" xmlns="http://www.w3.org/2000/svg">
<path d="M13.0807 0.583252H2.7474C1.31365 0.583252 0.164062 1.73284 0.164062 3.16659V23.8333C0.164062 25.267 1.31365 26.4166 2.7474 26.4166H12.8353C12.1507 25.2412 11.7891 23.8978 11.7891 22.5416C11.7891 18.2662 15.2636 14.7916 19.5391 14.7916C19.9782 14.7916 20.4045 14.8303 20.8307 14.8949V8.33325L13.0807 0.583252ZM11.7891 9.62492V2.52075L18.8932 9.62492H11.7891ZM24.7057 23.8333H20.8307V27.7083H18.2474V23.8333H14.3724V21.2499H18.2474V17.3749H20.8307V21.2499H24.7057V23.8333Z" fill="white"/>
</svg>
