<svg width="24" height="27" viewBox="0 0 24 27" fill="none" xmlns="http://www.w3.org/2000/svg">
<path d="M12.9167 0H2.58333C1.14958 0 0 1.14958 0 2.58333V23.25C0 24.6838 1.14958 25.8333 2.58333 25.8333H12.6713C11.9867 24.6579 11.625 23.3146 11.625 21.9583C11.625 17.6829 15.0996 14.2083 19.375 14.2083C19.8142 14.2083 20.2404 14.2471 20.6667 14.3117V7.75L12.9167 0ZM11.625 9.04167V1.9375L18.7292 9.04167H11.625Z" fill="white"/>
<path d="M18.8571 16C17.4932 16 16.1851 16.5795 15.2206 17.6109C14.2561 18.6424 13.7143 20.0413 13.7143 21.5H12L14.2229 23.8772L14.2629 23.9628L16.5714 21.5H14.8571C14.8571 19.135 16.6457 17.2222 18.8571 17.2222C21.0686 17.2222 22.8571 19.135 22.8571 21.5C22.8571 23.865 21.0686 25.7778 18.8571 25.7778C17.7543 25.7778 16.7543 25.295 16.0343 24.5189L15.2229 25.3867C15.6991 25.8988 16.2654 26.305 16.8892 26.5819C17.5129 26.8588 18.1818 27.0009 18.8571 27C20.2211 27 21.5292 26.4205 22.4937 25.3891C23.4582 24.3576 24 22.9587 24 21.5C24 20.0413 23.4582 18.6424 22.4937 17.6109C21.5292 16.5795 20.2211 16 18.8571 16ZM18.2857 19.0556V22.1111L20.7314 23.6633L21.1429 22.9239L19.1429 21.6528V19.0556H18.2857Z" fill="white"/>
</svg>
