<svg width="99" height="104" viewBox="0 0 99 104" fill="none" xmlns="http://www.w3.org/2000/svg">
<rect x="22.1875" y="28.8477" width="16.9356" height="52.7806" transform="rotate(-44.6031 22.1875 28.8477)" fill="#404040"/>
<rect x="36.1094" y="90.5059" width="18.0393" height="36.6019" transform="rotate(-135.973 36.1094 90.5059)" fill="#404040"/>
<path d="M17.4111 17.7792L34.2708 16.979L25.8999 32.368L17.4111 17.7792Z" fill="#404040"/>
<rect x="22.1875" y="28.8477" width="16.9356" height="52.7806" transform="rotate(-44.6031 22.1875 28.8477)" fill="#404040"/>
<rect x="36.1094" y="90.5059" width="18.0393" height="36.6019" transform="rotate(-135.973 36.1094 90.5059)" fill="#404040"/>
<path d="M17.4111 17.7792L34.2708 16.979L25.8999 32.368L17.4111 17.7792Z" fill="#404040"/>
<path d="M19.2416 89.6915L27.5818 75.01L36.1078 90.49L19.2416 89.6915Z" fill="#404040"/>
<path d="M11.7269 89.5855L23.3137 77.9986L36.1723 90.4333L11.7269 89.5855Z" fill="#404040"/>
<path d="M11.0204 17.521L22.3246 28.8252L36.5962 19.2166L34.1941 16.8145H10.0312L11.0204 17.521Z" fill="#404040"/>
<rect x="49.8828" y="29.5625" width="16.9356" height="52.7806" transform="rotate(-44.6031 49.8828 29.5625)" fill="#404040"/>
<rect x="63.8047" y="91.2207" width="18.0393" height="36.6019" transform="rotate(-135.973 63.8047 91.2207)" fill="#404040"/>
<path d="M45.1064 18.4941L61.9662 17.6938L53.5952 33.0828L45.1064 18.4941Z" fill="#404040"/>
<rect x="49.8828" y="29.5625" width="16.9356" height="52.7806" transform="rotate(-44.6031 49.8828 29.5625)" fill="#404040"/>
<rect x="63.8047" y="91.2207" width="18.0393" height="36.6019" transform="rotate(-135.973 63.8047 91.2207)" fill="#404040"/>
<path d="M45.1064 18.4941L61.9662 17.6938L53.5952 33.0828L45.1064 18.4941Z" fill="#404040"/>
<path d="M46.9369 90.4064L55.2771 75.7248L63.8031 91.2048L46.9369 90.4064Z" fill="#404040"/>
<path d="M39.4222 90.3003L51.009 78.7135L63.8676 91.1482L39.4222 90.3003Z" fill="#404040"/>
<path d="M38.7157 18.2358L50.0199 29.5401L64.2915 19.9314L61.8894 17.5293H37.7266L38.7157 18.2358Z" fill="#404040"/>
<path d="M35.467 91.7052L11.3042 90.8574L0 102.727H1.27173L23.315 103.857L35.467 91.7052Z" fill="#E5383B"/>
<path d="M61.0443 16.3911H37.4467L21.0555 0H22.7511H24.0229H44.6531L61.0443 16.3911Z" fill="#E5383B"/>
</svg>
